<svg xmlns="http://www.w3.org/2000/svg" height="24" viewBox="0 96 960 960" width="24"><path d="M339.784 716.216h466.434V249.782h-71.522v280l-100-60-100 60v-280H339.784v466.434Zm0 106.002q-44.305 0-75.154-30.848-30.848-30.849-30.848-75.154V249.782q0-44.305 30.848-75.153 30.849-30.848 75.154-30.848h466.434q44.305 0 75.153 30.848 30.848 30.848 30.848 75.153v466.434q0 44.305-30.848 75.154-30.848 30.848-75.153 30.848H339.784ZM153.782 1008.22q-44.305 0-75.153-30.849-30.848-30.848-30.848-75.153V329.782h106.001v572.436h572.436v106.002H153.782Zm380.914-758.438h200-200Zm-194.912 0h466.434-466.434Z"/></svg>