<svg xmlns="http://www.w3.org/2000/svg" height="24" viewBox="0 96 960 960" width="24"><path d="M431.521 795.218H280q-90.976 0-155.097-64.108-64.121-64.109-64.121-155.066 0-90.957 64.121-155.11Q189.024 356.782 280 356.782h151.521v106.001H280.242q-47.274 0-80.367 33.022-33.092 33.021-33.092 80.195 0 47.174 33.092 80.195 33.093 33.022 80.367 33.022h151.279v106.001ZM306.999 620.522v-89.044h346.002v89.044H306.999Zm221.48 174.696V689.217h151.279q47.274 0 80.367-33.022 33.092-33.021 33.092-80.195 0-47.174-33.092-80.195-33.093-33.022-80.367-33.022H528.479V356.782H680q90.976 0 155.097 64.108 64.121 64.109 64.121 155.066 0 90.957-64.121 155.11Q770.976 795.218 680 795.218H528.479Z"/></svg>