<svg xmlns="http://www.w3.org/2000/svg" height="24" viewBox="0 96 960 960" width="24"><path d="M480 566.391q-74.479 0-126.849-52.37-52.369-52.37-52.369-126.849 0-74.478 52.369-126.565 52.37-52.088 126.849-52.088 74.479 0 126.849 52.088 52.369 52.087 52.369 126.565 0 74.479-52.369 126.849-52.37 52.37-126.849 52.37ZM140.782 924.828V792.479q0-39.258 20.436-72.166 20.437-32.907 54.303-50.226 63.696-31.566 129.934-47.631Q411.692 606.391 480 606.391q69.391 0 135.652 15.782 66.261 15.783 128.827 47.348 33.866 17.238 54.303 49.989 20.436 32.751 20.436 72.938v132.38H140.782Zm106.001-106.002h466.434v-23.521q0-10.451-5.5-19.003-5.5-8.551-14.5-13.301-50.608-24.739-103.913-37.674Q536 712.392 480 712.392q-54.87 0-109.304 12.935-54.435 12.935-103.913 37.674-9 4.75-14.5 13.301-5.5 8.552-5.5 19.003v23.521ZM479.98 460.389q30.194 0 51.715-21.501 21.522-21.502 21.522-51.696 0-30.193-21.502-51.432-21.501-21.239-51.695-21.239t-51.715 21.341q-21.522 21.342-21.522 51.31 0 30.202 21.502 51.71 21.501 21.507 51.695 21.507Zm.02-73.217Zm0 431.654Z"/></svg>