<svg xmlns="http://www.w3.org/2000/svg" height="24" viewBox="0 96 960 960" width="24"><path d="M615.478 540.522q27.261 0 45.892-18.631Q680 503.261 680 476t-18.63-45.891q-18.631-18.631-45.609-18.631-26.979 0-45.609 18.78-18.631 18.78-18.631 45.609t18.654 45.742q18.654 18.913 45.303 18.913Zm-271.239 0q26.979 0 45.609-18.78 18.631-18.78 18.631-45.609t-18.654-45.742q-18.654-18.913-45.303-18.913-27.261 0-45.892 18.631Q280 448.739 280 476t18.63 45.891q18.631 18.631 45.609 18.631ZM480 796q70.261 0 126.609-40.478 56.348-40.479 80.217-106.305H273.174q23.869 65.826 80.217 106.305Q409.739 796 480 796Zm-.047 199.218q-86.91 0-163.301-32.913-76.392-32.913-133.218-89.739-56.826-56.826-89.74-133.265-32.912-76.438-32.912-163.348 0-86.91 32.913-163.301 32.913-76.392 89.739-133.218 56.826-56.826 133.265-89.739 76.438-32.913 163.348-32.913 86.91 0 163.301 32.913 76.392 32.913 133.218 89.739 56.826 56.826 89.739 133.265 32.913 76.438 32.913 163.348 0 86.91-32.913 163.301-32.913 76.392-89.739 133.218-56.826 56.826-133.265 89.739-76.438 32.913-163.348 32.913ZM480 576Zm0 313.217q130.609 0 221.913-91.304T793.217 576q0-130.609-91.304-221.913T480 262.783q-130.609 0-221.913 91.304T166.783 576q0 130.609 91.304 221.913T480 889.217Z"/></svg>