<svg xmlns="http://www.w3.org/2000/svg" height="24" viewBox="0 96 960 960" width="24"><path d="M166.783 956.914q-44.305 0-75.153-30.848-30.848-30.848-30.848-75.153V424.479q0-44.305 30.848-75.153 30.848-30.849 75.153-30.849h135.694v-70.956q0-44.305 30.849-75.153 30.848-30.848 75.153-30.848h143.042q44.305 0 75.153 30.848 30.849 30.848 30.849 75.153v70.956h135.694q44.305 0 75.153 30.849 30.848 30.848 30.848 75.153v426.434q0 44.305-30.848 75.153-30.848 30.848-75.153 30.848H166.783Zm0-106.001h626.434V424.479H166.783v426.434Zm241.696-532.436h143.042v-70.956H408.479v70.956ZM166.783 850.913V424.479v426.434Z"/></svg>